<svg width="100" height="100" xmlns="http://www.w3.org/2000/svg"><path d="M 50 13 L 82.04293994002423 31.5 M 50 13 L 17.957060059975774 31.5 M 50 13 L 33.97853002998789 40.75 M 82.04293994002423 31.5 L 82.04293994002423 68.5 M 82.04293994002423 68.5 L 50 87 M 82.04293994002423 68.5 L 66.0214699700121 59.25 M 50 87 L 17.957060059975774 68.5 M 50 87 L 66.0214699700121 59.25 M 50 87 L 33.97853002998789 59.25 M 17.957060059975774 68.5 L 17.957060059975774 31.5 M 17.957060059975774 68.5 L 33.97853002998789 59.25 M 66.0214699700121 40.75 L 33.97853002998789 40.75 M 66.0214699700121 40.75 L 50 50 M 66.0214699700121 59.25 L 33.97853002998789 59.25 M 33.97853002998789 40.75 L 50 50" stroke="#3eb15b" stroke-width="3" stroke-linejoin="round" stroke-linecap="round"></path></svg>